<svg width="59" height="35" viewBox="0 0 59 35" fill="none" xmlns="http://www.w3.org/2000/svg">
<mask id="path-1-inside-1_232_3" fill="white">
<path d="M47.75 10.0125L45.9875 8.25L39 15.2375L32.0125 8.25L30.25 10.0125L37.2375 17L30.25 23.9875L32.0125 25.75L39 18.7625L45.9875 25.75L47.75 23.9875L40.7625 17L47.75 10.0125Z"/>
</mask>
<path d="M47.75 10.0125L45.9875 8.25L39 15.2375L32.0125 8.25L30.25 10.0125L37.2375 17L30.25 23.9875L32.0125 25.75L39 18.7625L45.9875 25.75L47.75 23.9875L40.7625 17L47.75 10.0125Z" fill="white"/>
<path d="M47.75 10.0125L58.3566 20.6191L68.9632 10.0125L58.3566 -0.594103L47.75 10.0125ZM45.9875 8.25L56.5941 -2.3566L45.9875 -12.9632L35.3809 -2.3566L45.9875 8.25ZM39 15.2375L28.3934 25.8441L39 36.4507L49.6066 25.8441L39 15.2375ZM32.0125 8.25L42.6191 -2.3566L32.0125 -12.9632L21.4059 -2.3566L32.0125 8.25ZM30.25 10.0125L19.6434 -0.594103L9.03679 10.0125L19.6434 20.6191L30.25 10.0125ZM37.2375 17L47.8441 27.6066L58.4507 17L47.8441 6.3934L37.2375 17ZM30.25 23.9875L19.6434 13.3809L9.03679 23.9875L19.6434 34.5941L30.25 23.9875ZM32.0125 25.75L21.4059 36.3566L32.0125 46.9632L42.6191 36.3566L32.0125 25.75ZM39 18.7625L49.6066 8.1559L39 -2.4507L28.3934 8.1559L39 18.7625ZM45.9875 25.75L35.3809 36.3566L45.9875 46.9632L56.5941 36.3566L45.9875 25.75ZM47.75 23.9875L58.3566 34.5941L68.9632 23.9875L58.3566 13.3809L47.75 23.9875ZM40.7625 17L30.1559 6.3934L19.5493 17L30.1559 27.6066L40.7625 17ZM58.3566 -0.594103L56.5941 -2.3566L35.3809 18.8566L37.1434 20.6191L58.3566 -0.594103ZM35.3809 -2.3566L28.3934 4.6309L49.6066 25.8441L56.5941 18.8566L35.3809 -2.3566ZM49.6066 4.6309L42.6191 -2.3566L21.4059 18.8566L28.3934 25.8441L49.6066 4.6309ZM21.4059 -2.3566L19.6434 -0.594103L40.8566 20.6191L42.6191 18.8566L21.4059 -2.3566ZM19.6434 20.6191L26.6309 27.6066L47.8441 6.3934L40.8566 -0.594103L19.6434 20.6191ZM26.6309 6.3934L19.6434 13.3809L40.8566 34.5941L47.8441 27.6066L26.6309 6.3934ZM19.6434 34.5941L21.4059 36.3566L42.6191 15.1434L40.8566 13.3809L19.6434 34.5941ZM42.6191 36.3566L49.6066 29.3691L28.3934 8.1559L21.4059 15.1434L42.6191 36.3566ZM28.3934 29.3691L35.3809 36.3566L56.5941 15.1434L49.6066 8.1559L28.3934 29.3691ZM56.5941 36.3566L58.3566 34.5941L37.1434 13.3809L35.3809 15.1434L56.5941 36.3566ZM58.3566 13.3809L51.3691 6.3934L30.1559 27.6066L37.1434 34.5941L58.3566 13.3809ZM51.3691 27.6066L58.3566 20.6191L37.1434 -0.594103L30.1559 6.3934L51.3691 27.6066Z" fill="white" mask="url(#path-1-inside-1_232_3)"/>
<path d="M57.4997 1.5V33.5H16.903L2.67545 18.2852L16.946 1.5H57.4997Z" stroke="white" stroke-width="3"/>
</svg>
